<?xml version="1.0" encoding="UTF-8" standalone="no"?>
<!DOCTYPE svg PUBLIC "-//W3C//DTD SVG 20010904//EN"
              "http://www.w3.org/TR/2001/REC-SVG-20010904/DTD/svg10.dtd">

<svg xmlns="http://www.w3.org/2000/svg"
     viewBox="0 0 440 100">
  <path id="Selection"
        fill="#fff" stroke="black" stroke-width="0"
        d="M 34.00,20.92
           C 42.05,24.78 44.79,35.73 39.35,42.90
             37.56,45.26 35.44,46.46 33.00,48.00
             51.40,51.46 49.54,70.64 40.90,76.89
             32.03,83.31 18.15,80.82 8.00,80.00
             8.00,80.00 9.00,66.00 9.00,66.00
             9.00,66.00 9.00,33.00 9.00,33.00
             9.00,33.00 8.00,19.00 8.00,19.00
             15.06,19.00 27.93,18.01 34.00,20.92 Z
           M 28.84,44.30
           C 34.22,40.04 34.72,28.74 28.84,24.60
             25.88,22.45 20.62,23.00 17.00,23.00
             17.00,23.00 17.00,47.00 17.00,47.00
             21.08,46.96 25.40,46.96 28.84,44.30 Z
           M 66.00,34.00
           C 64.58,44.74 64.13,69.58 66.00,80.00
             66.00,80.00 55.00,80.00 55.00,80.00
             58.78,64.48 56.00,49.52 56.00,34.00
             56.00,34.00 66.00,34.00 66.00,34.00 Z
           M 88.00,35.00
           C 85.77,44.16 86.00,65.83 86.00,76.00
             86.00,76.00 105.00,74.00 105.00,74.00
             105.00,74.00 104.00,81.00 104.00,81.00
             104.00,81.00 93.00,80.04 93.00,80.04
             93.00,80.04 77.00,80.04 77.00,80.04
             78.87,69.58 78.42,44.74 77.00,34.00
             77.00,34.00 88.00,35.00 88.00,35.00 Z
           M 121.00,34.00
           C 121.00,34.00 120.04,44.00 120.04,44.00
             120.04,44.00 120.04,60.00 120.04,60.00
             120.02,63.71 120.03,67.64 122.09,70.90
             126.23,77.46 136.43,78.08 141.78,72.78
             145.45,69.13 145.94,64.88 146.00,60.00
             146.00,60.00 145.00,34.00 145.00,34.00
             145.00,34.00 152.00,35.00 152.00,35.00
             149.41,45.66 153.47,66.15 148.28,73.97
             142.01,83.44 120.30,84.17 114.41,73.97
             111.32,68.59 112.00,61.97 111.96,56.00
             111.96,56.00 111.96,44.00 111.96,44.00
             111.96,44.00 111.00,34.00 111.00,34.00
             111.00,34.00 121.00,34.00 121.00,34.00 Z
           M 178.42,44.00
           C 178.42,44.00 193.00,70.00 193.00,70.00
             194.95,63.83 204.93,47.56 208.72,41.00
             209.98,38.82 213.05,32.82 216.42,35.08
             218.52,36.48 219.04,44.44 219.42,47.00
             219.42,47.00 225.00,80.00 225.00,80.00
             225.00,80.00 214.00,80.00 214.00,80.00
             214.71,72.76 212.29,54.95 210.00,48.00
             208.30,53.39 199.97,67.33 196.72,73.00
             195.35,75.38 192.90,80.76 189.34,79.38
             187.02,78.48 184.00,72.26 182.77,70.00
             182.77,70.00 170.00,48.00 170.00,48.00
             170.00,48.00 167.00,80.00 167.00,80.00
             167.00,80.00 159.00,80.00 159.00,80.00
             162.24,71.42 166.20,43.87 167.00,34.00
             174.95,34.26 174.78,37.56 178.42,44.00 Z
           M 244.00,34.00
           C 242.58,44.74 242.13,69.58 244.00,80.00
             244.00,80.00 233.00,80.00 233.00,80.00
             236.78,64.48 234.00,49.52 234.00,34.00
             234.00,34.00 244.00,34.00 244.00,34.00 Z
           M 270.00,45.01
           C 270.00,45.01 291.00,66.00 291.00,66.00
             291.00,66.00 290.00,34.00 290.00,34.00
             290.00,34.00 297.00,34.00 297.00,34.00
             297.00,34.00 296.00,49.00 296.00,49.00
             296.00,49.00 296.00,81.00 296.00,81.00
             290.17,79.29 287.20,75.20 283.00,71.00
             283.00,71.00 261.00,49.00 261.00,49.00
             261.00,49.00 261.00,67.00 261.00,67.00
             261.00,67.00 262.00,80.00 262.00,80.00
             262.00,80.00 255.00,80.00 255.00,80.00
             256.87,69.58 256.42,44.74 255.00,34.00
             260.80,35.70 265.73,40.84 270.00,45.01 Z
           M 345.91,39.39
           C 355.81,47.83 356.29,65.74 346.82,74.67
             341.28,79.89 335.32,81.16 328.00,80.99
             300.31,80.31 296.15,42.26 322.00,34.53
             330.22,33.18 339.28,33.74 345.91,39.39 Z
           M 371.00,34.00
           C 371.00,34.00 370.04,44.00 370.04,44.00
             370.04,44.00 370.04,60.00 370.04,60.00
             370.02,63.71 370.03,67.64 372.09,70.90
             376.23,77.46 386.43,78.08 391.78,72.78
             395.45,69.13 395.94,64.88 396.00,60.00
             396.00,60.00 395.00,34.00 395.00,34.00
             395.00,34.00 402.00,35.00 402.00,35.00
             399.41,45.66 403.47,66.15 398.28,73.97
             392.01,83.44 370.30,84.17 364.41,73.97
             361.32,68.59 362.00,61.97 361.96,56.00
             361.96,56.00 361.96,44.00 361.96,44.00
             361.96,44.00 361.00,34.00 361.00,34.00
             361.00,34.00 371.00,34.00 371.00,34.00 Z
           M 420.00,77.16
           C 424.16,78.29 428.33,74.38 427.51,70.00
             425.99,61.90 412.10,57.74 411.11,47.00
             410.48,40.16 414.12,35.26 421.00,34.21
             428.49,33.07 436.68,34.81 432.00,44.00
             429.13,40.43 422.20,34.56 419.39,42.06
             418.01,45.71 421.68,49.57 424.04,51.91
             429.02,56.84 435.83,61.12 435.92,69.00
             436.04,79.43 426.95,82.95 418.00,81.19
             416.40,80.88 413.64,80.29 412.29,79.43
             408.57,77.06 409.73,72.19 413.00,70.00
             414.46,73.05 416.48,76.19 420.00,77.16 Z
           M 334.00,76.57
           C 342.16,74.34 344.00,66.30 344.00,59.00
             344.00,45.50 338.95,36.15 324.00,38.43
             306.17,45.47 313.00,82.30 334.00,76.57 Z
           M 32.89,74.44
           C 39.27,69.62 39.80,57.60 32.89,53.01
             28.83,50.30 21.81,51.00 17.00,51.00
             17.00,51.00 18.00,77.00 18.00,77.00
             22.75,77.00 28.91,77.45 32.89,74.44 Z" />
</svg>
